<?xml version="1.0" encoding="UTF-8"?>
<!DOCTYPE svg PUBLIC "-//W3C//DTD SVG 1.0//EN" "http://www.w3.org/TR/2001/REC-SVG-20010904/DTD/svg10.dtd">
<!-- Creator: CorelDRAW 2017 -->
<svg xmlns="http://www.w3.org/2000/svg" xml:space="preserve" width="127.89mm" height="60.8959mm" version="1.0" style="shape-rendering:geometricPrecision; text-rendering:geometricPrecision; image-rendering:optimizeQuality; fill-rule:evenodd; clip-rule:evenodd"
viewBox="0 0 12788.96 6089.59"
 xmlns:xlink="http://www.w3.org/1999/xlink">
 <defs>
  <style type="text/css">
   <![CDATA[
    .fil0 {fill:#FEFEFE;fill-rule:nonzero}
    .fil2 {fill:#E63834;fill-rule:nonzero}
    .fil1 {fill:#1D7D3C;fill-rule:nonzero}
   ]]>
  </style>
 </defs>
 <g id="Слой_x0020_1">
  <metadata id="CorelCorpID_0Corel-Layer"/>
  <path class="fil0" d="M6979.24 654.52c9.92,-0.85 20.36,-2.47 31.65,-5.51 -10.3,2.05 -21.17,3.6 -31.65,5.51z"/>
  <path class="fil0" d="M6803.35 681.26c-18.8,2.43 -38,4.3 -56.94,6.42 14.92,0.84 33.55,-0.81 57.57,-5.75l-0.63 -0.67z"/>
  <path class="fil0" d="M8118.12 5411.62l-5.75 2.89c10.58,-3.07 15.73,-6.17 5.75,-2.89z"/>
  <path class="fil0" d="M5800.62 2043.61l-1.27 -0.53c3.67,0.11 7.31,0.25 10.94,0.39 -3.21,0.07 -6.46,0.11 -9.67,0.14zm2673.07 1227.64c-32.24,0.77 -64.1,2.01 -96.48,2.64 -93.52,1.66 -185.42,1.98 -276.44,1.27 -10.05,-1.59 -21.1,-2.72 -33.06,-3.03 -82.72,-5.12 -165.87,-9.6 -248.84,-13.9 28.89,-0.28 57.71,-0.6 86.71,-1.13l2.33 -0.04c188.52,5.26 377.01,10.16 565.78,14.19zm-928.19 1871.9c-108.23,50.63 -256.79,37.33 -372.5,103.51l60.47 -90.98c54.36,-10.27 109.5,-19.51 165.2,-27.84l-1.8 2.02c-2.54,5.25 13.8,-0.39 36.37,-7.24 29.88,-4.27 59.87,-8.29 89.89,-12.2 13.9,3.88 23.04,13.47 22.37,32.73zm584.87 121.54c3.24,-6.67 4.55,-12.28 4.87,-17.4 10.33,-1.9 20.67,-3.84 30.97,-5.78l-35.84 23.18zm-1123.99 78.81c14.47,-5.05 29.42,-8.93 41.67,-13.2 -4.84,5.01 -17.04,9.6 -41.67,13.2zm-47.16 -74.54c50.16,8.96 41.66,18.16 26.63,29.98 -37.32,9.17 -73.69,19.3 -109.5,30.06 -2.22,-27.98 34.64,-52.99 82.87,-60.04zm-2882.94 26.42c31.4,-8.86 65.16,-12.56 100.33,-13.97 -2.15,12.03 -16.44,21.87 -64.59,28.86 -12.74,-5.51 -25.68,-10.27 -38.7,-14.57l2.96 -0.32zm3186.47 -183.8c-2.72,5.61 -5.72,9.77 -8.82,13.27l8.82 -13.27zm-1736.76 -58.95c27.09,42.69 -44.03,41.31 -72.82,51.33 -13.51,-13.62 -25.36,-26.63 -37.11,-38.77 28.26,-9.14 55.07,-19.05 81.1,-27.06 -3.77,3.18 -7.58,6.53 -11.88,10.66 10.05,-4.2 25.4,-0.21 40.71,3.84zm179 32.63c-26.89,3.74 -53.66,7.84 -80.19,12.39 -11.78,-21.7 -13.44,-44.03 22.86,-74.23 -50.7,23.67 -70.77,11.47 -87.63,1.87 4.76,-0.39 9.52,-1.23 14.29,-1.23 282.64,-32 565.43,-32 791.52,-111.8 -28.36,31.93 -84.87,31.93 -113.24,47.94 -72.46,47.81 -170.99,72.18 -279.82,89.5 -25.61,-6.28 -51.19,-13.23 -76.98,-21.62l64.56 23.56c-53.48,8.22 -109.25,14.93 -165.63,21.91 -28.08,-13.47 -60.71,-26.99 -104.95,-38.8 -5.4,11.07 4.97,29.77 15.21,50.51zm738.47 531.71c-1.87,-11.96 -16.02,-16.9 -35.42,-17.32l50.62 -13.94 -15.2 31.26zm-2216.68 -4887.95c31.53,-1.34 42.47,2.68 44.76,9.88 -17.11,0.32 -34.18,0.74 -51.26,1.13 2.44,-3.92 4.8,-7.62 6.5,-11.01zm2216.68 -90.73c-1.87,-11.96 -16.02,-16.9 -35.42,-17.32l50.62 -13.94 -15.2 31.26zm-1522.81 113.56c-205.7,-13.48 -406.43,-16.16 -604.69,-13.44 126.36,-59.2 472.83,-9.95 770.54,24.76 -55.14,-3.49 -110.35,-7.23 -165.85,-11.32zm1396.9 115.21c158.64,383.83 -1388.25,-115.07 -1701.73,202.96 -93.28,-202 562.93,-231.99 788.1,-209.23 278.59,41.48 610.27,43.95 913.63,6.27zm730.5 -515.44c-4.84,5.01 -17.04,9.6 -41.67,13.2 14.47,-5.05 29.42,-8.89 41.67,-13.2zm1301.92 1269.4c-4.73,5.36 -9.21,11.08 -13.37,17.29 -14.67,-3.04 -29.17,-5.58 -43.78,-7.83 -25.96,8.15 -54.15,20.53 -71.68,28.25 -206.41,13.94 -413.92,35.7 -629.5,35.18 -18.63,2.82 -37.57,5.46 -56.66,7.86 -57.96,10.16 -140.68,-14.21 -196.95,-19.89 86.18,8.71 170.46,11.85 253.61,12.03 245.6,-36.87 438.79,-106.4 701.18,-63.43 17.75,-5.54 34.22,-9.21 45.37,-8.08 3.88,-0.53 7.8,-0.81 11.78,-1.38 42.26,-46.92 116.38,-62.55 200.73,-64.56l0 -294.07c-365.33,23.99 -752.05,2.96 -1121.09,75.74 -57.93,10.16 -140.83,-14.22 -196.92,-19.9 201.72,-27.8 378.42,-90.27 580.07,-117.97 233.12,-48.08 484.79,-55.74 737.94,-53.62l0 -422.1c-128.44,5.08 -256.64,10.2 -385.12,15.24 -76.77,29.99 -152.65,53.13 -226.77,56.06 -171.8,14.71 -368.76,-5.19 -539.12,-6.32 24.95,34.58 -59.58,26.07 -61.17,41.91 -175.12,46.57 -370.27,10.8 -567.23,-9.1 -28.01,-2.82 -26.39,-18.69 -54.01,-34.82 -282.04,122.1 -636.16,67.03 -982.06,25.65 -86.78,-3.95 -173.99,-11.68 -262.15,-25.47l1.52 -0.14c85.44,5.61 172.89,15.1 260.63,25.61 201.72,9.35 400.3,-3.07 599.44,-18.73 -283.28,2.86 -557.43,-0.46 -830.9,-10.55 24.45,-4.16 43.67,-10.55 55.39,-20.07 -20.99,-5.75 -42.2,-11.4 -34.54,-26.99 401.6,-13.65 838.27,-6.92 1221.81,-49.14 -58.98,-3.07 -58.38,-44.7 -59.05,-84 -0.5,-28.79 -1.7,-56.34 -27.49,-66.53 -55.42,30.3 43.71,44.48 21.24,66.53 -3.91,3.85 -11.08,7.9 -23.88,12.35 -4.48,-4.94 -8.33,-8.43 -12.35,-12.35 -50.83,-49.6 -69.53,-24.41 -90.27,0 -19.37,22.79 -41.35,43.25 -93.74,0 -3.03,-2.5 -5.71,-4.34 -8.99,-7.3l66.07 -61.88c-143.61,49.88 -342.9,67.17 -520.24,63.92l16.97 -83.89c-64.95,35.63 -156.95,28.65 -168.56,-45.26 205,19.62 240.07,-174.3 364.74,-87.66 -15.14,31.08 -7.52,15.52 5.96,36.79 51.54,-56.94 146.37,-128.73 244.19,-84.88l-37.25 51.93c156.1,-2.22 325.79,16.62 468.59,-7.02 -41.45,-37.57 2.65,-78.77 66.86,-88.12 98.7,17.57 -29.6,36.16 11.78,73.8 60.47,95.88 235.69,-42.86 306.6,-41.56 -22.02,20.64 189.65,50.94 60.53,95.85 155.44,24.03 266.14,-105.51 369.05,1.66 15.24,-31.29 52.42,-83.26 95.53,-98.07l-2.82 78.74 51.85 -56.87c104.21,1.94 155.83,158.5 260.64,91.97 -20.08,5.78 -61.03,10.9 -64.1,-30.41 9.27,-68.23 208.7,-85.58 169.12,-175.68l-87.03 56.26c30.48,-62.61 -83.47,-48.89 -60.47,-95.95l-235.87 43 -4.76 -63.14 55.46 32.52c68.72,-140.72 -113.84,13.58 -182.07,-66.6l-1.87 52.6c-204.19,-45.86 -83.61,-48.93 -252.31,-94.12l-51.61 56.86c-7.58,15.67 151.34,-65.33 148.63,13.3 -108.23,50.63 -256.79,37.33 -372.5,103.51l80.93 -121.82c-40.15,44.91 -110.78,-77.5 -216.5,-64.77l97.82 43.89c-82.23,119.38 -277.07,5.36 -407.21,76.52 35.53,0.63 70.94,1.27 76.91,38.24 -29.81,36.3 -114.02,13.65 -163.06,-8.29 19.05,-136.53 307.59,-67.88 275.56,-173.75 -148.52,-13.26 -274.68,147.5 -365.94,114.13l73.84 -77.4 -71.83 24.83 21.13 5.72c-30.65,62.51 -92.25,-7.02 -149.61,12.98l38.24 -78.21 -106.36 -2.05 13.47 21.31c-171.55,33.62 -320.14,20.32 -474.59,-29.91l91.13 33.3c-7.66,15.63 -57.33,19.9 -99.59,8.68 12.59,47.45 126.54,33.9 117.97,75.77 -148.63,-13.3 -167.64,-71.61 -315.53,-111.09 -15.24,31.33 95.29,122.81 -26.56,152.19 9.56,-68.22 -96.03,-96.62 -15.56,-163.51 -104.18,48.65 -79.16,-54.22 -162.38,25.36 10.05,-4.19 25.4,-0.21 40.71,3.85 27.09,42.69 -44.03,41.31 -72.82,51.33 -47.98,-48.26 -74.75,-90.91 -152.57,-102.84l-164.68 44.38c-6.7,-10.76 0.99,-26.38 0.99,-26.38 -157.17,28.61 -325.97,-16.66 -440.97,23.28 -15.32,31.26 -59.2,72.53 26.07,68.86 -65.97,61.95 -156.14,2.33 -226.21,-25.29l59.2 -72.6c-195.83,17.11 -429.01,-78.04 -607.87,-9.6l0 18.06 24.16 38.49c-8.04,1.59 -16.12,2.72 -24.16,3.88l0 3.46 9.98 -2.37 -2.57 78.92c12.98,-173.39 309.63,74.19 265.29,-79.3 64.06,-9.21 90.24,59.65 81.63,101.56l179 -49.21c20.25,31.93 -17.96,110.14 -39.09,104.46 -70.91,-1.24 -186.55,64.84 -254.85,-15.28 -58.38,46.25 53.87,85.2 -74.5,103.82 -53.17,-22.93 -108.87,-34.75 -164.89,-40.78l0 451.73c28.64,-0.21 56.76,0.78 84.38,3.11 -28.11,1.02 -56.3,1.97 -84.38,3.14l0 947.84c21.66,1.59 43.46,2.72 65.4,2.44 28.16,2.85 59.45,-26.14 61.03,-42.06 193.54,51.72 315.67,-32.17 511.07,3.5l-81.31 -40.29c114.19,-4.48 201.72,-27.8 343.99,-29.39 112.57,11.36 203.17,-43.63 287.55,-35.1 284.41,-3.45 565.75,24.94 798.73,-31.71 -31.44,28.93 -87.63,23.25 -117.48,36.3 -179.74,94.12 -487.57,47.02 -747.18,84.98 -85.83,7.34 -173.57,30.66 -259.47,37.93 -284.34,16.89 -568.89,33.58 -862.33,38.03l0 199.63c158.68,15.88 316.12,29.99 472.93,42.76 -43.6,6.6 -86.67,13.55 -129.25,20.88 -11.72,-1.13 -23.43,-2.32 -35.99,-2.96 -98.11,-15.03 -201.68,-24.02 -307.69,-30.44l0 3770.06c96.73,-0.63 188.59,9.49 270.12,54.72 -20.07,-31.89 1.8,-52.57 9.53,-68.19 85.23,-3.71 20.25,31.89 40.32,63.92 36.05,-220.31 1153.41,83.92 1292.05,-29.18 -20.99,-5.71 -42.2,-11.36 -34.54,-26.98 401.6,-13.62 838.27,-6.88 1221.81,-49.11 -58.98,-3.07 -58.38,-44.7 -59.05,-84 -0.5,-28.78 -1.7,-56.34 -27.49,-66.53 -55.42,30.3 43.71,44.48 21.24,66.53 -3.91,3.81 -11.08,7.87 -23.88,12.35 -4.48,-4.94 -8.33,-8.43 -12.35,-12.35 -50.83,-49.6 -69.53,-24.44 -90.27,0 -19.37,22.79 -41.35,43.25 -93.74,0 -3.03,-2.54 -5.71,-4.34 -8.99,-7.3l66.07 -61.88c-143.61,49.89 -342.9,67.17 -520.24,63.89l16.97 -83.85c-58.46,32.06 -138.29,29.1 -162.24,-25.62 264.33,-13.75 528.46,-30.69 794.35,-50.41 35.84,-17.92 73.87,-33.83 112.92,-48.86 45.79,-1.2 90.49,-4.23 132.64,-11.22 -6.27,-5.71 -10.01,-11.46 -12.59,-17.25 28.65,-1.16 56.83,-3.21 84.35,-6.59 1.27,3.07 3.21,6.17 6.88,9.49 60.47,95.92 235.69,-42.83 306.6,-41.53 -6.74,6.32 8.46,13.55 29,21.81 -51.58,18.16 -103.12,36.65 -155.44,53.72 74.09,-6.35 148.91,-13.05 223.59,-19.72 11.19,11.89 6.25,25.16 -36.62,40.04 155.44,24.03 266.14,-105.51 369.05,1.63 14.04,-28.79 46.7,-74.76 85.47,-93.49 3.32,-0.49 6.67,-0.99 9.95,-1.48l-2.71 75.63 51.85 -56.83c104.21,1.94 155.83,158.51 260.64,91.97 -20.08,5.79 -61.03,10.9 -64.1,-30.41 8.43,-62.09 173.85,-82.27 173.74,-153.28 43.81,-8.43 87.63,-17.07 131.59,-26l4.23 -0.85 -3.18 0.11c-45.61,1.8 -91.54,2.82 -137.26,4.34l0 -0.04 -0.04 0.04c-37.39,1.2 -74.75,2.54 -112.22,3.53 -22.43,-10.8 -47.13,-18.91 -35.24,-43.25l-235.87 43.03 -3.03 -40.18c10.37,-1.3 20.32,-2.68 30.62,-3.98l23.11 13.54c3.28,-6.7 5.47,-12.13 7.65,-17.56 129.44,-16.9 251.11,-35.92 356.66,-62.13 -140.9,3.99 -282.29,6.53 -424.53,6.53 -38.31,3.1 -75.49,8.53 -111.97,15.31 -3.39,-2.68 -6.88,-5.22 -9.88,-8.75l-0.39 10.48c-29.31,5.75 -58.07,12.66 -86.53,20.14 -48.9,-15.45 -51.37,-25.01 -71.87,-37.5 310.2,-39.76 620.19,-63.75 845.79,-127.53 52.95,-13.44 106.89,-25.33 161.04,-36.86l0 -108.31c-169.47,30.24 -340.22,62.27 -518.09,79.8 -18.31,4.69 -36.86,9.21 -55.63,13.51 -56.66,15.95 -141.36,0 -197.94,0 86.6,0 170.78,-5.32 253.57,-13.51 184.86,-47.13 337.15,-110.14 518.09,-129.5l0 -341.49c-112.25,14.18 -225,29.31 -337.08,48.08 -92.85,3.14 -186.16,5.82 -280.28,7.62 -14.85,0.28 -29.42,0.28 -44.2,0.5 102.34,-35.46 203.73,-71.97 313.83,-98.57 66.11,-20.71 134.44,-37.61 203.83,-52.56 26,1.34 52.07,2.54 78.11,3.81 -99.52,11.81 -194.98,26.95 -281.94,48.75 28.15,0 56.59,16.02 84.81,16.02 55.14,-31.16 137.09,-62.13 220.1,-63.65 14.28,0.71 28.54,1.42 42.82,2.12l0 -877.36c-86.15,4.84 -171.98,10.09 -257.74,15.42 86.05,-7.66 171.95,-15.81 257.74,-23.88l0 -215.55c-183.27,-3.99 -366.53,-8.5 -549.48,-13.48 8.15,-4.23 13.68,-9.03 14.92,-14.32 0.14,-7.48 -7.94,-14.32 -21.31,-20 188.03,-16.58 372.29,-37.93 555.87,-60.36l0 -876.02c-132.36,-5.29 -264.37,-9.67 -395.43,-12.38 22.9,-10.59 36.52,-23.15 36.52,-36.8 0,-3.42 -1.73,-6.77 -3.6,-10.16 119.87,1.52 240.59,2.68 362.51,3.81l0 -69.67c-228.28,0.99 -456.17,-0.14 -689.4,-0.39 -50.76,-3.99 -101.67,-6.7 -153.07,-5.22 -51.96,1.41 -103.82,2.86 -155.32,4.27 -404.53,-3.53 -801.27,-19.55 -1195.99,-36.59 472.3,-15.38 943.68,-33.4 1408.32,-67.45 31.4,-1.3 52.5,-9.73 52.18,-18.73 21.52,-2.05 43.07,-4.09 64.7,-6.24 5.01,2.04 12.35,3.52 21.06,3.88 41.1,1.37 82.41,2.22 123.54,3.53 175.05,9.52 349.68,17.18 523.98,23.63l0 -78.49c-143.54,5.71 -287.19,12.7 -431.02,22.08 -40.08,4.62 -79.69,9 -119.1,13.2 -30.27,-0.99 -60.54,-1.63 -90.8,-2.61 -17.47,-0.22 -31.86,3.49 -34.26,8.36 -0.32,2.11 1.87,4.02 5.19,5.64 -28.54,-1.73 -57.22,-4.06 -85.8,-5.93 -12.73,-3.14 -29.24,-4.86 -46.99,-4.12l-8.78 0.24c-159.07,-10.9 -318.53,-23.24 -478.76,-39.44 -152.29,-3.07 -291.25,28.26 -429.75,61.92 -205.32,3.88 -410.67,7.3 -616.02,10.51 45.51,-14.92 92.28,-28.47 141.57,-39.27 -44.66,-4.58 -90.74,-12.34 -138.43,-24.06 475.68,-208.59 1259.8,-97.26 1722.61,-178.99 197.1,-29.43 401.11,-45.02 610.34,-50.17l0 -141.22c-67.62,4.06 -135.39,9.03 -200.73,17.57z"/>
  <path class="fil0" d="M6883.46 1939.69c-183.47,7.12 -363.89,22.71 -527.29,58.2 192.3,20.22 360.61,-17.74 527.29,-58.2z"/>
  <path class="fil0" d="M8550.69 5336.09l0 -3.53c-37.99,0.67 -148.06,15.38 -154.62,47.56 27.76,16.19 108.23,-50.52 119.91,23.31 18.87,2.09 29.21,1.38 34.71,-0.95l0 -16.83c-14.18,-19.54 -49.49,-47.2 0,-49.56z"/>
  <path class="fil0" d="M8333.21 691.24c-16.2,-1.62 -31.51,-3.17 -42.55,-4.3 -18.1,7.97 -35.98,15.8 -54.05,23.56 26.25,3.42 52.74,7.16 79.13,11.08l9.63 -2.58c9.56,-0.24 18.31,-3.98 27.59,-7.33l16.65 -4.41c8.75,-1.24 18.42,-0.57 29.92,4.65l67.1 -88.23 -43.15 14.93 -2.75 -34.93 -2.22 -28.19c-1.98,4.03 -5.65,14.71 -11.5,28.19 -12.46,28.68 -35.11,70.1 -73.8,87.56z"/>
  <path class="fil0" d="M8550.69 1842.92c-245.99,2.12 -485.49,17.18 -715.36,51.47 -14.89,2.72 -31.4,4.66 -47.1,6.98 255.27,18.38 509.17,30.7 762.46,40.68l0 -99.13z"/>
  <path class="fil0" d="M8118.12 432.97l-5.75 2.86c10.58,-3.07 15.73,-6.17 5.75,-2.86z"/>
  <path class="fil0" d="M8127.04 1183.86c111.69,4.9 224.12,4.76 335,0.53 -227.15,-5.93 -456.21,-12.38 -649.29,15.87 28.01,2.83 54.68,21.63 82.76,24.45 59.45,-26.07 146.87,-49.39 231.53,-40.85z"/>
  <path class="fil0" d="M7262.74 132.9l-8.82 13.26c3.1,-3.45 6.1,-7.65 8.82,-13.26z"/>
  <path class="fil0" d="M8550.69 5033.58c-86.5,16.62 -171.94,34.93 -255.51,56.16 -14.54,4.17 -30.77,7.77 -46.15,11.68 100.83,-2.93 201.33,-6.81 301.66,-11.29l0 -56.55z"/>
  <path class="fil0" d="M8357.83 5203.97c64.38,-2.54 128.62,-5.57 192.86,-8.71l0 -31.68c-64.87,14.01 -129.04,27.48 -192.86,40.39z"/>
  <path class="fil0" d="M6599.44 5441.01c211.32,29.81 385.52,-10.09 551.71,-64.25 -169.08,14.47 -337.15,27.94 -504.36,40.43 -15.67,7.87 -32.25,15.24 -47.35,23.82z"/>
  <path class="fil0" d="M6803.35 681.26c60.25,-7.52 118.92,-16.34 175.89,-26.74 -55.35,4.72 -90.1,-21.77 -118.39,-50.84 -40.43,-41.59 -67.84,-88.02 -123.54,-54.47 56.41,32.99 62.16,45.19 55.67,54.47 -9.56,13.58 -45.72,20.85 10.37,77.58z"/>
  <path class="fil0" d="M6803.98 5660.61l-0.63 -0.67c-18.8,2.43 -38,4.3 -56.94,6.42 14.92,0.81 33.55,-0.81 57.57,-5.75z"/>
  <path class="fil0" d="M8328.83 5273.65c0,0 -93.8,45.54 -159.98,107.45 100.57,-60.57 278.9,29.28 253.4,-122.45 -47.88,5.05 -87.14,13.45 -101.25,30.55l7.83 -15.55z"/>
  <path class="fil0" d="M7315.65 5638.53l19.97 -56.17 11.54 -32.56c-76.1,-64.56 -268.54,-36.62 -431.49,-44.94l105.55 28.26c-5.15,18.45 0.71,34.36 10.94,49.24 21.77,31.58 63.43,58.42 62.23,94.23 -3.35,-115.85 142.7,-23.64 221.26,-38.06z"/>
  <path class="fil0" d="M6979.24 5633.2c9.92,-0.85 20.36,-2.47 31.65,-5.5 -10.3,2.04 -21.17,3.59 -31.65,5.5z"/>
  <path class="fil0" d="M8048.87 613.42c2.04,-3.42 3.81,-6.67 5.29,-9.74 3.7,-7.65 5.32,-14.32 2.19,-19.3 -5.26,7.31 -7.73,13.62 -8.4,19.3 -0.42,3.49 -0.07,6.74 0.92,9.74z"/>
  <path class="fil0" d="M7827.32 677.66c22.51,-5.68 43.64,-8.12 57.79,1.34 -19.34,-0.81 -38.53,-0.92 -57.79,-1.34zm-268.53 -17.92c-16.44,-12.46 -21.77,-30.41 6.84,-47.73 97.02,70.27 157.16,-28.61 247.4,31.01l-86.18 29.88 1.52 4.34c-137.9,1.79 -274.11,13.61 -406.65,40.21 -57.78,10.23 -147.11,49.32 -203.27,43.68 -267.76,-11.82 -526.31,13.05 -783.8,33.3 122.24,-1.24 245.74,-3.25 372.11,-6.78 3.56,0.04 6.98,-0.07 10.51,-0.14 504.72,-11.53 978.57,-29.24 1448.3,-47.73 23.63,-9.2 47.37,-19.08 71.04,-29.28 -37.04,-4.94 -74.11,-9.35 -111.16,-13.33 76.35,-2.47 153.78,-21.35 171.35,-92.5l-1.52 -0.99c-58.07,-41.42 -87.24,-26.99 -110.95,0 -15.27,17.39 -28.36,39.9 -45.4,56.02 -21.66,-12.59 -81.21,-19.75 -90.06,-46.28 -13.37,22.47 -34.61,50.94 -15.91,75.14 -31.47,-2.65 -62.87,-4.73 -94.27,-6.53 8.08,-33.26 -28.08,-54.89 -31.43,-78.35 -2.22,-15.42 9.7,-31.64 57.96,-52.53 -142.8,23.64 -248.32,-4.65 -368.12,-27.9 34.68,26.91 48.86,21.87 97.79,43.88 -58.07,2.51 -129.96,21.73 -201.4,36.55 -33.37,6.92 -66.68,12.95 -98.39,15.7 43.46,68.69 99.73,31.68 163.69,40.36z"/>
  <path class="fil0" d="M7558.79 659.74c12.66,9.59 31.92,15.91 47.34,16.19 -16.19,-9.45 -32,-14.15 -47.34,-16.19z"/>
  <path class="fil0" d="M7315.65 659.84l19.97 -56.16 11.54 -32.56c-76.1,-64.56 -268.54,-36.62 -431.49,-44.91l105.55 28.26c-5.15,18.41 0.71,34.32 10.94,49.21 21.77,31.57 63.43,58.42 62.23,94.23 -3.35,-115.85 142.7,-23.64 221.26,-38.07z"/>
  <path class="fil0" d="M8550.69 663.51l-7.3 -1.51 7.3 5.71 0 -4.2z"/>
  <path class="fil0" d="M8286.57 5677.9c47.91,48.22 64.27,-9.35 112.96,12.7l67.1 -88.23 -43.15 14.92 -2.75 -34.93 -2.22 -28.18c-1.98,4.02 -5.65,14.71 -11.5,28.18 -16.83,38.7 -52.14,100.72 -120.44,95.54z"/>
  <path class="fil0" d="M7558.79 5638.38c-16.44,-12.45 -21.77,-30.37 6.84,-47.69 97.02,70.27 157.16,-28.65 247.4,30.97l-86.18 29.92c11.75,73.91 179.99,-75.5 175.47,55.91 79.52,-63 9.67,-92.21 4.94,-125.13 -2.22,-15.41 9.7,-31.64 57.96,-52.53 -142.8,23.64 -248.32,-4.65 -368.12,-27.9 34.68,26.92 48.86,21.87 97.79,43.89 -58.07,2.5 -129.96,21.73 -201.4,36.54 -33.37,6.92 -66.68,12.95 -98.39,15.67 43.46,68.72 99.73,31.68 163.69,40.35z"/>
  <path class="fil0" d="M6803.35 5659.94c60.25,-7.51 118.92,-16.33 175.89,-26.74 -55.35,4.73 -90.1,-21.77 -118.39,-50.84 -40.43,-41.59 -67.84,-88.05 -123.54,-54.5 56.41,33.02 62.16,45.23 55.67,54.5 -9.56,13.59 -45.72,20.85 10.37,77.58z"/>
  <path class="fil0" d="M7558.79 5638.38c12.66,9.64 31.92,15.95 47.34,16.23 -16.19,-9.49 -32,-14.14 -47.34,-16.23z"/>
  <path class="fil0" d="M8048.87 5592.06c-14.5,24.38 -38.42,55.85 -10.52,81.18 92.01,7.05 233.86,9.7 258.45,-89.89l-1.52 -0.99c-58.07,-41.41 -87.24,-26.98 -110.95,0 -15.27,17.4 -28.36,39.9 -45.4,56.02 -21.66,-12.59 -81.21,-19.75 -90.06,-46.32z"/>
  <path class="fil0" d="M8048.87 5592.06c2.04,-3.38 3.81,-6.63 5.29,-9.7 3.7,-7.69 5.32,-14.32 2.19,-19.29 -5.26,7.26 -7.73,13.61 -8.4,19.29 -0.42,3.5 -0.07,6.74 0.92,9.7z"/>
  <path class="fil0" d="M8428.03 5258.02c45.47,28.96 78.04,20.85 122.66,4.27l0 -12.35c-40.6,2.47 -84.13,4.3 -122.66,8.08z"/>
  <path class="fil0" d="M8422.25 279.97l5.78 -0.63 -6.31 -3.71 0.53 4.34z"/>
  <path class="fil0" d="M8328.83 294.97c0,0 -93.8,45.54 -159.98,107.45 100.57,-60.57 278.9,29.28 253.4,-122.45 -47.88,5.05 -87.14,13.44 -101.25,30.59l7.83 -15.59z"/>
  <path class="fil0" d="M8550.69 357.41l0 -3.53c-37.99,0.67 -148.06,15.38 -154.62,47.55 27.76,16.2 108.23,-50.51 119.91,23.32 18.87,2.08 29.21,1.38 34.71,-0.95l0 -16.83c-14.18,-19.54 -49.49,-47.16 0,-49.56z"/>
  <path class="fil0" d="M8543.39 5640.68l7.3 5.71 0 -4.23 -7.3 -1.48z"/>
  <path class="fil0" d="M7365.22 1865.25c-171.24,-3.46 -325.76,36.44 -481.76,74.44 324.35,-12.85 654.65,-2.33 904.77,-38.32 -140.58,-10.19 -281.48,-21.83 -423.01,-36.12z"/>
  <path class="fil0" d="M8428.03 279.34c45.47,28.96 78.04,20.85 122.66,4.27l0 -12.35c-40.6,2.47 -84.13,4.3 -122.66,8.08z"/>
  <path class="fil0" d="M7432.35 567.42l158.93 -81.11 -271.11 42.23 112.18 38.88z"/>
  <path class="fil0" d="M8422.25 5258.65l5.78 -0.63 -6.31 -3.7 0.53 4.33z"/>
  <path class="fil0" d="M8550.69 1179.1c-29.6,1.69 -58.81,4.19 -88.65,5.29 29.6,0.77 59.2,1.55 88.65,2.22l0 -7.51z"/>
  <path class="fil0" d="M7432.35 5546.1l158.93 -81.11 -271.11 42.23 112.18 38.88z"/>
  <path class="fil1" d="M206.27 1138c18.79,-3.35 35.68,-6.88 51.57,-10.62 -26.1,-2.65 -50.83,-5.12 -50.83,-5.12 -0.5,5.19 -0.46,10.41 -0.74,15.74z"/>
  <path class="fil1" d="M310.79 940.16c1.38,4.52 1.25,8.71 1.8,13.16 4.5,-3.95 8.94,-7.94 14.2,-11.54 -5.26,-0.53 -10.66,-1.09 -16,-1.62z"/>
  <path class="fil1" d="M66.41 1492.93c139.01,-165.88 453.72,-198.23 139.82,-354.4 -2.01,58.52 13.25,118.71 -18.45,174.3 -28.07,-2.82 -84.17,-8.5 -112.45,-11.35 -31.3,28.92 -6.41,63.5 -9.62,95.32 -28.1,-2.83 -56.17,-5.68 -57.78,10.19 -22.59,39.79 5,70.56 58.48,85.94z"/>
  <path class="fil1" d="M2754.6 179.82l1.27 -37.61c-12.81,11.22 -17.25,23 -1.27,37.61z"/>
  <path class="fil1" d="M2624.92 445.71c42.01,11.29 117.97,75.77 134.97,-7.98 -27.62,-16.36 -86.01,29.88 -134.97,7.98z"/>
  <path class="fil1" d="M2974.98 168.14l94.58 -71.86c-35.31,-0.6 -120.62,2.96 -94.58,71.86z"/>
  <path class="fil1" d="M3098.77 234.96c-8.71,-0.14 -17.75,0.32 -26.71,3.56 11.08,0.07 19.3,-1.55 26.71,-3.56z"/>
  <path class="fil1" d="M3208.84 177.77c-106.37,-44.27 -47.88,40.08 -110.07,57.19 18.87,0.32 36.69,3.24 51.79,-10.87 -55.74,-32.63 36.26,-25.64 58.28,-46.32z"/>
  <path class="fil1" d="M2940.48 141.26l-91.94 -6.99c1.7,-52.63 2.58,-78.88 59.2,-72.56 -13.55,-21.27 -64.28,9.31 -93.06,19.3l21.02 5.6c-12.42,15.49 -36.37,27.87 -56.58,39.94 81.84,7.97 144,139.8 161.36,14.71z"/>
  <path class="fil1" d="M996.98 2112.93c8.18,-2.15 16.42,-4.26 24.47,-6.56 -6.56,-0.81 -13.31,-1.65 -19.99,-2.47 -5.52,2.19 -10.64,4.48 -15.1,6.99 3.55,0.7 7.09,1.37 10.62,2.04z"/>
  <path class="fil1" d="M3276.04 5600.53c45.9,-2.89 91.97,-6.28 137.87,-8.89l0 0.07c-28.86,27.06 -93.21,21.7 -137.87,8.82zm-42.93 93.03c-69.11,-53.91 -100.55,34.92 -155.23,-24.03l28.3 -58.03c39.79,-2.78 79.44,-5.11 119.13,-7.69 12.45,27.59 55.42,63.75 7.8,89.75zm-1755.64 18.2l22.51 -21.02c8.47,-0.07 16.9,-0.14 25.22,-0.22 3,6.71 -15.45,13.9 -47.73,21.24zm-27.51 -588.29c246.94,-24.87 502.42,-61.49 696.49,-33.97 -236.82,21.9 -491.6,60.96 -698.75,46.25 0,-3.67 0.85,-7.87 2.26,-12.28zm-876.92 -962.73l-6.61 -4.16 79.81 -100.16 -73.2 104.32zm1001.09 890.41c-29.91,8.5 -59.9,16.3 -88.9,22.93 21.03,-19.15 48.12,-34.08 75.5,-34.08 4.3,3.99 8.75,7.59 13.4,11.15zm2158.4 74.58l2.44 3.81 -2.44 -3.81zm-354.61 309.1c-12.42,0.14 -24.8,0.18 -37.15,0.04 -2.54,-4.2 -5.36,-8.47 -8.46,-12.77 21.91,-1.38 43.81,-2.83 65.72,-4.24 -6.63,7.69 -13.33,13.16 -20.11,16.97zm-1654.53 250.65c23.6,-1.48 41.1,-3.42 50.24,-5.89 -3.46,2.36 -7.09,4.41 -10.87,6.1 -13.47,-0.1 -26.63,-0.17 -39.37,-0.21zm1198.32 -264.41l-4.23 2.08 -0.43 -7.3 4.66 5.22zm-1901.29 -1693.82l-0.47 0c-10.05,-5.93 -22.09,-13.16 -37.48,-22.23 0,0 15.92,9.35 37.95,22.23zm0.61 -809.73l7.07 1.65 -1.59 2.3 -7.8 -1.03 2.32 -2.92zm670.61 546.8c48.9,3.99 97.23,7.69 145.67,11.47 -5.12,9.45 -7.94,19.08 -8.29,28.85 -64.84,-2.4 -130.25,-4.37 -196.57,-5.75 -51.97,-1.13 -103.3,0.67 -152.44,5.37 -54.96,-26.22 -113.13,-51.65 -187.85,-72.29 125.09,15.66 268,21.8 399.48,32.35zm-345.68 -268.53l4.55 2.5c-5.22,-0.18 -10.41,-0.39 -15.63,-0.56 3.67,-0.67 7.44,-1.27 11.08,-1.94zm-311.08 -286.28l-6.69 -0.99 61.9 -77.68 -55.21 78.67zm-621.75 626.32c8.74,2.22 15.49,5.64 26.58,11.22 0,0 -0.11,0 -26.58,-11.22zm1051.11 -1034.13l-0.45 0c-10.06,-5.93 -22.09,-13.2 -37.47,-22.26 0,0 15.91,9.34 37.92,22.26zm987.08 -815.87l0.31 -7.31 4.13 5.68 -4.44 1.63zm399.76 363.6c-34,-4.12 -68.05,-8 -102.16,-12.2 6.21,2.75 12.49,5.36 18.84,8.01 -131.66,-6.78 -262.93,-13.87 -393.49,-22.23 -188.31,-25.86 -390.63,-43.5 -595.56,-50.87 59.27,-10.69 115.43,-22.72 167.78,-35.74 260.95,28.3 511.53,65.37 784.68,76.17 18.07,2.61 35.85,5.47 53.63,8.43 25.68,9.63 51.47,19.37 77.33,29.03 -3.64,-0.14 -7.34,-0.31 -11.05,-0.6zm-365.05 239.4c-133.99,-7.37 -270.09,-12.63 -409.72,-15.52 -52,-1.1 -103.33,0.67 -152.43,5.36 -54.96,-26.21 -113.17,-51.65 -187.89,-72.28 125.13,15.69 268.04,21.83 399.48,32.38 145.84,11.82 289.21,22.79 432.12,32.7 -16.76,1.24 -33.48,2.16 -50.41,3.39 -16.4,1.66 -48.54,0 -31.15,13.97zm-1424.6 -1094.18c22.84,-16.93 51.31,-29.06 78.5,-26.31 3.92,4.37 7.98,8.43 12.25,12.41 -30.62,5.47 -61.24,10.2 -90.75,13.9zm656.32 81.74c-237.84,-1.97 -495.26,11.29 -699.87,-24.16 0.37,-3.64 1.64,-7.76 3.47,-12 248.2,0.07 506.04,-10.69 696.4,36.16zm-860.77 1033.85c8.74,2.26 15.48,5.68 26.58,11.26 0,0 -0.12,0 -26.58,-11.26zm3090.15 -359.12c-230.86,-14.01 -474.24,-14.4 -705.1,-28.54 7.16,11.07 15.88,22.01 23.04,33.02 -62.3,-8.47 -98.67,-28.4 -166.94,-34.44 19.2,8.01 37.05,16.16 56.2,24.24l-4.06 -0.35c-72.95,-17.92 -160.9,-25.86 -252.23,-26.53 -28.68,-7.09 -58.46,-13.65 -88.8,-19.93 154.52,5.96 308.58,13.37 463.34,22.26 -2.75,-3.78 -3.81,-7.45 -3.03,-10.97 111.97,7.9 224.33,16.05 338.49,25.15 112.54,11.36 201.72,-27.87 314.32,-16.51 8.29,0.85 16.48,1.55 24.77,2.36l0 -199.63c-119.38,1.83 -240.07,1.83 -363.04,-1.34 -170.29,-1.17 -370.24,10.79 -542.37,25.54 -57.71,4.97 -114.61,0.84 -170.39,-5.44 -2.11,-4.41 -4.48,-8.92 -7.16,-13.51 69.04,2.51 138.18,5.4 207.4,5.93 57.96,-10.23 118.85,-52.25 147.07,-49.43 115.82,-20.32 256.26,-6.13 398.47,-7.83 97.82,-17.25 211.38,12.7 330.02,21.45l0 -947.84c-111.69,4.55 -223.03,9.95 -334.33,15.41 -58.59,2.3 -116.84,1.24 -174.87,-1.94 10.05,-10.72 17.71,-22.61 15.42,-37.21 161.71,48.89 334.39,18.55 493.78,17.49l0 -451.73c-172.44,-18.62 -348.12,18.28 -464.01,-39.4 34.57,26.88 70.13,27.55 26.04,68.82l-104.46 -61.03c-86.33,16.76 -131.2,109.44 -193.75,60.65 -22.75,47.02 154.59,50.3 210.08,82.9 -83.64,172.05 -181.15,-92.85 -271.04,42.3 -38.98,104.49 228.04,-27.41 152.72,102.76l-119.84 -23.35c78.6,124.35 193.39,-33.48 228.07,79.23 0.95,3.18 2.12,5.72 2.97,9.35 -40.89,38.35 -153.11,11.71 -179.43,-9.35l-4.51 -4.62 -4.73 4.62c-20.25,27.09 69.36,77.61 7.87,111.2 -52.32,-40.82 -83.05,0.1 -118.64,-3.14 9.03,-5.19 18.24,-10.09 26.95,-15.7 -20.71,-3.32 -41.2,-5.75 -61.81,-8.75l28.75 -58.91c-49.91,4.3 -176.53,-29.64 -233.85,-9.6 -0.25,-5.19 0.14,-10.2 0.84,-15.1 11.47,-80.04 142,-124.07 195.27,-118.07 -47.98,-48.26 -140.94,-28.93 -190.78,-24.63l91.12 33.3c-101.71,6 -109.4,82.17 -172.97,109.4 -20.95,8.96 -47.94,12.63 -86.47,6.7 -34.07,4.94 -52.1,1.49 -61.38,-6.7 -25.54,-22.68 17.57,-82.76 -12.8,-110.38 -143.55,49.95 -49.75,4.37 -45.72,93.77 -113.95,13.68 -141.04,-28.86 -290.38,-15.95 86.19,-29.88 109.15,-76.84 193.61,-54.19l-26.04 -68.86c-98.53,34.18 -177.34,99.48 -283.88,155.61 -17.92,9.42 -36.4,18.66 -56.09,27.38l-5.89 -27.38 -6.38 -29.74c-7.27,12.38 -84.81,21.38 -194.84,29.74 -70.6,5.33 -154.52,10.44 -242.12,15.98 -73.09,-4.65 -146.65,-9.91 -221.29,-15.98 -102.45,-8.36 -206.84,-17.92 -315.39,-28.86 -112.44,-11.36 -226.43,-6.7 -338.88,-18.06 -35.62,3.07 -33.91,23.71 -29.89,46.92 5.66,32.74 16,70.63 -67.25,71.61 7.16,5.08 14.03,11.29 19.87,18 109.12,-9.6 206.42,-29.35 233.04,7.55 12.37,26.56 -10.11,45.22 -50.03,61.17 -64.94,25.93 -176.23,44.73 -260.38,78.98 -4.81,11.86 -11.32,23.53 -19.72,35.11 0,0 -18.39,-1.87 -40.28,-4.1 -5.2,3.6 -9.57,7.59 -14.28,11.36 2.31,18.74 -3.06,36.73 -11.42,54.4 -35.57,-4.83 -70.24,-10.93 -105.29,-17.14 63.02,32.88 128.41,60.57 195.82,83.85 -35.8,23.18 -75.42,39.2 -128.42,51.9l0.17 1.76 -5.46 -0.53c-16.05,3.74 -32.85,7.3 -51.49,10.62l-0.06 0.49c313.91,156.21 -0.73,188.53 -139.68,354.51 27.99,7.97 62.75,12.03 102.12,10.51 -1.6,15.88 -4.82,47.66 -4.82,47.66 211.95,48.58 361.15,114.16 533.91,195.23 -123.33,6.49 -238.25,27.23 -315.08,60.61 -153.15,66.42 -99.2,157.44 121.62,203.62l31.83 7.13c-112.75,10.23 -211.17,31.92 -266.73,70.06 -29.68,20.99 -3.69,47.52 2.71,71.96 -8.99,35.35 79.96,66.26 198.06,68.76 32.04,0.67 62.6,-0.95 90.66,-4.13 136.26,13.02 275.62,23.39 408.15,39.23 26.21,3.92 58.14,0.5 71.96,-7.72 11.79,-8.15 0.46,-17.75 -26.67,-21.38 -95.49,-16.51 -187.99,-34.01 -280.04,-51.83 -7.67,2.02 -15.26,4.06 -22.95,6.18 3.25,-3.04 7.76,-5.65 12.33,-8.22 -8.36,-1.62 -16.77,-3.25 -25.13,-4.87 6.52,-1.52 12.61,-3.21 19.35,-4.66 7,0.85 13.89,1.7 20.88,2.54 11.65,-4.58 25.05,-8.6 40.29,-12.06 165.35,12.28 329.08,25.96 483.07,49.46 8.99,1.48 -6.07,17.28 10.47,23.11 8.26,2.85 16.8,5.46 25.72,8.11 -27.66,-3.42 -56.87,-6.35 -88.3,-8.54 -118.36,22.4 -163.05,30.87 -193.96,36.69l-0.53 -0.25c0,0 -0.24,0.07 -9.24,2.09 -14.29,2.68 -26.77,5 -44.84,8.43l0.14 1.37c-3.59,0.81 -7.4,1.66 -11.39,2.51 -17.64,-1.03 -35.31,-2.19 -53.09,-3.18 -19.97,-1.41 -39.34,1.48 -49.08,6.39 -6.94,-3.92 -14.35,-7.9 -23.73,-11.89 -101.19,-7.73 -101.19,-7.73 -205.01,-14.71 0,0 0.2,4.02 3.57,9.63 -4.1,0.39 -38.7,4.69 -79.09,2.54 -38.89,0.63 -38.89,0.63 -135.97,-5.96 0,0 0,0 46.89,15.84 0,0 0,0 -41.06,-10.97 0,0 0,0 10.72,18.06 0,0 0,0 -18.93,-19.72 0,0 0,0 -17.65,14.78 0,0 -0.27,-0.14 -81.41,-42.93 -6.35,0.91 -21.43,3.1 -59.25,8.67 0,0 -10.52,4.06 -18.19,9 -0.86,5.26 -0.86,5.26 -33.19,23.67 0,0 -0.73,6.07 2.43,12.49 9.94,6 9.94,6 12.44,22.58 0,0 11.19,6.38 27.52,11.89 15.6,3.17 19.64,3.98 77.49,14.25 -5.01,2.78 -9.77,5.75 -14.01,8.78 -11.18,30.76 -11.18,30.76 61.11,102.24 0,0 40.32,19.54 105.68,33.62 75.84,6.81 75.84,6.81 163.47,13.9 0,0 19.04,2.64 51.97,6.13 24.53,11.61 29.97,14.64 48.14,25.09l0.4 0.17c-16.73,0.71 -33.13,2.76 -46.74,6.14 -39.48,10.02 -44.98,27.45 -11.84,39.27 -43.59,47.37 -17.53,90.2 37.55,131.26 -13.87,12.92 -21.18,26.5 -22.17,40.43l-0.11 8.75c-64.53,40.43 -104.76,83.4 -121.61,129.12l-7.73 39.97c9.19,16.61 27.08,32.7 52.42,47.62 -7.33,-0.21 -14.43,-0.7 -21.93,-0.74 7.48,6.35 17.13,12.74 24.67,19.19 -220.74,-46.25 -523.42,-29.67 -675.99,36.59 -153.15,66.42 -99.2,157.48 121.63,203.62l31.83 7.16c-112.75,10.2 -211.17,31.89 -266.73,70.06 -29.7,20.99 -3.71,47.52 2.7,71.93 -8.98,35.35 79.97,66.29 198.07,68.8 32.04,0.67 62.59,-0.96 90.64,-4.17 136.28,13.06 275.64,23.39 408.18,39.27 26.18,3.91 58.13,0.49 71.95,-7.73 11.77,-8.15 0.47,-17.78 -26.66,-21.41 -95.49,-16.51 -188.02,-34.01 -280.05,-51.79 -7.68,2.01 -15.27,4.06 -22.95,6.14 3.26,-3 7.76,-5.61 12.34,-8.19 -8.37,-1.62 -16.77,-3.24 -25.14,-4.86 6.52,-1.56 12.6,-3.25 19.33,-4.7 7.01,0.85 13.91,1.73 20.88,2.58 11.66,-4.59 25.07,-8.64 40.3,-12.1 165.35,12.31 329.08,26 483.1,49.46 8.98,1.52 -6.08,17.28 10.43,23.11 8.28,2.89 16.79,5.5 25.75,8.14 -27.66,-3.42 -56.88,-6.35 -88.3,-8.53 -118.38,22.4 -163.08,30.83 -193.96,36.65l-0.53 -0.21c0,0 -0.27,0.07 -9.27,2.05 -14.28,2.71 -26.78,5 -44.83,8.46l0.14 1.38c-3.57,0.81 -7.4,1.66 -11.37,2.5 -17.66,-1.02 -35.32,-2.22 -53.11,-3.17 -19.98,-1.45 -39.34,1.48 -49.07,6.38 -6.95,-3.95 -14.36,-7.93 -23.74,-11.92 -101.18,-7.73 -101.18,-7.73 -205,-14.71 0,0 0.19,4.02 3.57,9.63 -4.11,0.39 -38.7,4.73 -79.1,2.54 -38.88,0.67 -38.88,0.67 -135.96,-5.96 0,0 0,0 46.88,15.87 0,0 0,0 -41.06,-11 0,0 0,0 10.72,18.06 0,0 0,0 -18.92,-19.69 0,0 0,0 -17.67,14.78 0,0 -0.25,-0.17 -81.38,-42.96 -6.36,0.95 -21.43,3.1 -59.26,8.71 0,0 -10.53,4.06 -18.19,8.99 -0.87,5.26 -0.87,5.26 -33.2,23.68 0,0 -0.73,6.03 2.44,12.48 9.92,5.97 9.92,5.97 12.43,22.55 0,0 11.19,6.42 27.52,11.89 15.61,3.21 19.64,4.02 77.5,14.28 -5.03,2.76 -9.78,5.75 -14.01,8.75 -11.18,30.76 -11.18,30.76 61.1,102.27 0,0 40.33,19.51 105.68,33.62 75.85,6.78 75.85,6.78 163.48,13.87 0,0 19.04,2.64 51.98,6.13 24.53,11.65 29.96,14.65 48.13,25.12l0.4 0.14c-16.74,0.74 -33.14,2.79 -46.75,6.14 -39.49,10.02 -44.98,27.48 -11.84,39.27 -43.58,47.37 -17.52,90.24 37.56,131.26 -13.89,12.95 -21.19,26.53 -22.17,40.43l-0.13 8.79c-64.53,40.39 -104.74,83.39 -121.6,129.11l-7.74 39.94c18.65,33.72 72.82,65.26 153.23,89.5l24.33 9.59 -23.08 32.92c102.97,87.7 306.78,157.97 432.62,241.69l94.65 44.13c23.79,12.35 52.68,23.42 85.24,33.34 4.77,25.18 -1.05,48.89 -65.19,56.12 7.62,4.34 15.09,9.85 21.58,15.91 107.61,-20.49 202.4,-49.95 232.6,-15.91 14.99,25.23 -5.51,46 -43.61,65.9 -62.01,32.32 -170.85,62.23 -251.14,104.74 -3.6,12.28 -8.91,24.55 -16.1,36.9 0,0 -18.48,0 -40.48,0 -4.8,4.09 -8.76,8.5 -13.07,12.74 5.09,22.33 -0.98,44.76 -10.36,67.13 49.66,0 99.2,0 148.66,0 -46.23,52.14 -92.92,83.04 -169.97,109.93l0.35 1.76 -5.49 0c-15.61,5.33 -31.97,10.55 -50.17,15.73l0 0.53c328.01,123.86 18.2,187.65 -103.35,366.72 28.63,5.15 63.64,5.68 102.65,0.21 0,15.94 0,47.9 0,47.9 236.39,29.64 400.15,87.18 603.6,159.21 15.38,5.44 30.44,10.76 46.32,16.37 7.05,2.01 13.22,4.73 18.83,8.01 -271.21,18.77 -530.95,44.98 -496.68,99.31 -16.37,-14.93 219.15,-13.83 426.34,-15.17l-11.01 22.51c-168.24,36.05 -651.56,73.97 -509.93,64.59 -10.4,94.4 -86.28,29.84 -82.16,119.52 -178.47,47.13 -295.73,23.6 -419.34,1.8 256.2,133.7 550.7,182.81 866.97,190.29 35.56,-17.68 66.22,-43.01 16.55,-67.84 -79.45,40.71 -120.09,-23.14 -61.63,-69.43 86.21,-29.98 -9.35,68.19 92.11,6.95l-48.97 -21.98c99.77,-8.6 150.5,-39.3 209.66,-111.9 394.12,96.95 821.02,-142.24 1163.42,11.36l116.84 -92.32c5.65,36.76 18.38,84.45 75.74,64.42 -21.06,-5.65 -56.69,-6.25 -48.96,-21.91l262.75 -0.28 -27.03 -42.65c83.54,48.86 235.73,-42.97 324.91,42.93 0.95,-26.28 58.35,-46.32 52.57,-83.22 161.71,48.89 334.39,18.52 493.78,17.46l0 -3770.06z"/>
  <path class="fil1" d="M263.09 1126.04c79.29,-19.02 129.13,-45.02 180.2,-92.25 -49.28,-5.01 -98.54,-9.95 -147.9,-14.96 -19.04,34.89 -43.59,69.25 -32.3,107.21z"/>
  <path class="fil1" d="M553.14 3338.52c8.17,-2.15 16.41,-4.27 24.46,-6.56 -6.55,-0.85 -13.31,-1.66 -20,-2.47 -5.51,2.15 -10.62,4.44 -15.07,6.98 3.52,0.67 7.07,1.34 10.61,2.05z"/>
  <path class="fil1" d="M2756.47 127.29l-0.6 14.92c6.14,-5.25 14.29,-10.55 23.25,-15.66 -7.52,-0.85 -15.03,-0.92 -22.65,0.74z"/>
  <path class="fil1" d="M3397.85 255l6.85 4.19c9.06,-1.94 18.41,-3.59 28.57,-3.56l-35.42 -0.63z"/>
  <path class="fil1" d="M576.4 2170.86c-13.3,-3.6 -22.16,-6 -22.16,-6 5.09,2.79 10.05,5.3 14.81,7.84 4.24,-0.57 4.37,-0.67 4.37,-0.67l2.98 -1.17z"/>
  <path class="fil1" d="M2110.5 546.5l6.07 27.44c5,-8.64 5.39,-17.64 -6.07,-27.44z"/>
  <path class="fil1" d="M3732.53 147.05l2.44 3.81 -2.44 -3.81z"/>
  <path class="fil1" d="M684.98 2175.8c-27.19,-6.31 -53.3,-13.09 -92.06,-11.57 -9.32,3.74 -14.08,5.61 -16.52,6.63 14.34,3.81 33.72,9.07 53.09,14.18 38.16,10.2 57.8,2.37 55.49,-9.24z"/>
  <path class="fil1" d="M241.12 3401.35c-27.17,-6.31 -53.29,-13.05 -92.05,-11.54 -9.32,3.74 -14.09,5.58 -16.51,6.6 14.33,3.85 33.72,9.1 53.1,14.22 38.14,10.19 57.79,2.36 55.46,-9.28z"/>
  <path class="fil1" d="M3538.33 89.33c124.67,86.61 -87.07,56.23 -123.44,81.81 118.15,31.79 295.35,-36.23 317.64,-24.09l-4.37 -6.78 218.97 -51.29 0 -3.46c-162.74,23.07 -319.41,-39.58 -408.8,3.81z"/>
  <path class="fil1" d="M132.56 3396.41c-13.31,-3.56 -22.17,-5.96 -22.17,-5.96 5.1,2.79 10.06,5.29 14.83,7.8 4.21,-0.57 4.35,-0.64 4.35,-0.64l2.99 -1.2z"/>
  <path class="fil1" d="M3937.85 28.37l9.28 14.78 0 -18.06 -9.28 3.28z"/>
  <path class="fil2" d="M8621.67 2215.49c1013.07,9.17 1980,-40.78 2945.13,-98.92 121.07,5.57 220.49,-4.06 347.98,6.03 1.06,-9.74 4.09,-14.64 28.08,2.26 -9.84,-0.99 -18.87,-1.48 -28.08,-2.26 -1.27,9.07 -0.99,22.47 -14.29,26.99 99.84,-8.15 216.05,-13.69 327.73,-7.48 16.16,-15.45 31.86,-31.08 46.29,-46.88 -56.8,-3.78 -113.45,-7.84 -169.79,-11.54 148.2,-9.1 296.54,-18.2 445.24,-27.06 83.01,-3.03 143.05,-26.07 133.07,-50.94 -9.74,-25.08 -86.36,-43.18 -169.09,-40.15 -622.3,0.18 -1195.92,43.57 -1825.63,86.58 -448.34,30.41 -842.29,52.88 -1292.57,74.11 -289.28,13.41 -567.48,17.71 -845.05,18.88l0 69.67c23.71,0.25 47.13,0.5 70.98,0.71z"/>
  <path class="fil2" d="M9093.69 5319.54c-4.24,-26.35 -55.28,-42.86 -71.33,-59.4 -21.73,111.33 -128.24,-2.72 -81.5,149.08 30.91,2.54 66.4,1.16 114.8,-11.43l-99.06 -17.67c30.73,-62.62 120.9,-3.07 137.09,-60.58z"/>
  <path class="fil2" d="M11329.49 5997.55c-10.66,-14.68 -36.62,-20.04 -69.11,-21.95 6.03,23.25 24.27,40.22 69.11,21.95z"/>
  <path class="fil2" d="M9570.93 1795.01c26.14,-1.09 51.01,-2.29 76.76,-3.28 -6.38,-0.63 -12.91,-1.27 -19.37,-1.83 -18.98,1.76 -38.49,3.21 -57.39,5.11z"/>
  <path class="fil2" d="M9055.66 419.11l-99.06 -17.68c30.73,-62.61 120.9,-3.07 137.09,-60.57 -4.24,-26.35 -55.28,-42.83 -71.33,-59.41 -21.73,111.34 -128.24,-2.68 -81.5,149.09 30.91,2.57 66.4,1.16 114.8,-11.43z"/>
  <path class="fil2" d="M8550.69 5385.65l0 16.83c7.23,-3.14 5.44,-9.28 0,-16.83z"/>
  <path class="fil2" d="M9022.36 281.45c1.23,-6.31 2.32,-12.94 2.96,-20.77 -10.37,7.37 -9.45,14.07 -2.96,20.77z"/>
  <path class="fil2" d="M8550.69 5249.94l0 12.35c12.7,-4.73 26.18,-9.99 41.49,-15.31 -13.19,1.16 -27.16,2.08 -41.49,2.96z"/>
  <path class="fil2" d="M10012 4816.48c25.9,-3.7 50.52,-7.41 76.06,-11 -6.42,0.03 -12.98,0.03 -19.47,0.14 -18.7,3.67 -37.96,7.09 -56.59,10.86z"/>
  <path class="fil2" d="M8560.68 5335.74c6.7,-2.33 1.51,-3.36 -9.99,-3.18l0 3.53c3.18,-0.18 6.04,-0.42 9.99,-0.35z"/>
  <path class="fil2" d="M8560.68 357.05c6.7,-2.32 1.51,-3.35 -9.99,-3.17l0 3.53c3.18,-0.18 6.04,-0.43 9.99,-0.36z"/>
  <path class="fil2" d="M9226.37 381.11l-70.24 3.04c40.71,8.71 60.71,5.71 70.24,-3.04z"/>
  <path class="fil2" d="M9326.77 376.81l-26.21 -68.93c-110.63,-29.64 -45.79,47.27 -74.19,73.23l100.4 -4.3z"/>
  <path class="fil2" d="M8550.69 406.97l0 16.83c7.23,-3.1 5.44,-9.28 0,-16.83z"/>
  <path class="fil2" d="M8766.77 350.49l-38.14 78.25c63.79,-16.65 105.17,-13.83 143.16,-8.08 -25.12,-25.44 -11.57,-75.71 -105.02,-70.17z"/>
  <path class="fil2" d="M8550.69 271.26l0 12.35c12.7,-4.73 26.18,-9.99 41.49,-15.31 -13.19,1.16 -27.16,2.11 -41.49,2.96z"/>
  <path class="fil2" d="M8941.43 432.65l-0.57 -2.11c-24.51,-2.01 -46.21,-6.42 -69.07,-9.88 11.22,11.32 30.06,17.74 69.64,11.99z"/>
  <path class="fil2" d="M8889.54 5689.25c43.78,-41.27 118.74,49.5 176.28,29.57l22.82 -47.06c-123.4,81.95 -144.92,-118.29 -199.1,17.49z"/>
  <path class="fil2" d="M9740.05 5698.99c13.93,3.07 29.24,3 43.46,2.58 -14.68,-0.74 -28.65,-1.98 -43.46,-2.58z"/>
  <path class="fil2" d="M10721.93 5899.44c3.28,3.92 6.35,5.93 9.67,9.1l0.39 -0.1 -10.06 -9z"/>
  <path class="fil2" d="M8550.69 5646.39l27.17 21.24 106.36 1.9 -133.53 -27.37 0 4.23z"/>
  <path class="fil2" d="M9433.84 5746.76c-19.19,-58.21 46.7,-120.09 -52,-137.66 -15.31,31.19 -50.66,30.55 -44.91,67.49 -42.19,-11.36 -33.55,-53.27 -61.63,-69.67 -72.5,51.26 -184.82,12.41 -243.03,58.63 28.54,-10.06 35.38,0.63 56.37,6.21 112.15,38.98 263.6,-26.57 345.2,75z"/>
  <path class="fil2" d="M9022.36 5260.14c1.23,-6.32 2.32,-12.95 2.96,-20.78 -10.37,7.37 -9.45,14.07 -2.96,20.78z"/>
  <path class="fil2" d="M10477.85 5730.39c-4.41,10.93 -8.72,21.87 -3.95,29.24 -46.92,-27.09 -109.4,-25.71 -169.51,-21.2 89.6,34.72 176.17,66.61 262.39,81.92 -21.94,-41.95 -45.75,-80.33 -88.93,-89.96z"/>
  <path class="fil2" d="M10949.33 5880.85c4.56,-11.47 12.85,-24.06 20.11,-36.55 -0.46,10.73 -5.82,22.75 -20.11,36.55z"/>
  <path class="fil2" d="M10527.62 5582.36c46.04,-46.56 -17.11,-84.35 -78.67,-72.77 54.69,3.73 83.97,41.66 75.32,72.77l-1.06 4.45 4.41 -4.45z"/>
  <path class="fil2" d="M9769.93 5383.86l0.95 -0.15c0.78,-2.64 -67.49,-24.55 -69.81,0.39l61.56 -1.34c4.16,0.95 6.2,1.17 7.3,1.1z"/>
  <path class="fil2" d="M9669.81 3745.73c-83.01,11.22 -165.56,22.44 -247.58,33.76 -14.92,-8.75 -32.88,-16.83 -53.66,-24.09 100.61,-2.97 200.91,-6.39 301.24,-9.67zm1260.16 -18.94c-20.36,4.37 -40.89,8.5 -61.32,12.77 -238.26,8.68 -475.43,20 -711.41,33.62 99.03,-15.63 197.31,-32.14 294.92,-49.46 159.18,1.09 318.42,2.12 477.81,3.07zm-361.53 71.26l-6.1 2.33 -7.94 0.03c4.66,-0.84 9.42,-1.51 14.04,-2.36l8.75 -3.35c-96.66,-0.43 -194.56,-5.44 -291.89,-10.73 157.48,-8.5 315.67,-15.66 474.2,-21.94 -63.32,12.45 -127,24.48 -191.06,36.02zm-1278.11 570.58c10.3,-3.28 19.72,-6.91 27.27,-11.04 12.2,-6.07 19.5,-12.67 23.14,-19.3 155.33,-10.4 311.25,-20.11 466.86,-30.2 -157.79,67.17 -336.83,62.38 -517.27,60.54zm345.4 -120.44c-79.3,3.6 -158.96,6.53 -239.04,8.68 16.76,-3.46 33.62,-6.88 49.85,-10.76 39.54,-4.34 79.16,-8.71 119.06,-12.73 23.11,4.69 46.42,9.59 70.13,14.81zm-31.68 -439.28c-8.5,0.11 -17.11,0.22 -25.65,0.32 163.2,-41.91 347.91,-42.4 539.86,-33.72 -172.05,10.09 -343.6,21.02 -514.21,33.4zm322.48 -3.77c8.36,-0.53 16.82,-0.95 25.22,-1.48l-9.07 1.34c-5.36,0.03 -10.76,0.07 -16.15,0.14zm-1375.84 550.72c155.72,7.44 311.65,14.57 467.89,22.16 -17.6,2.08 -35.1,4.51 -52.53,7.47 -135.57,23.5 -274.99,40.5 -415.36,58.25l0 341.49c54.58,-5.82 111.66,-7.84 173.15,-4.06 17.07,-7.3 33.09,-12.59 44.3,-12.59 3.85,-0.92 7.7,-1.59 11.61,-2.54 68.33,-93.17 252.91,-93.17 412.43,-93.17 -5.57,-6.32 -6.66,-10.69 -4.97,-14.01 6.88,-13.55 61.63,-8.32 61.63,-33.94 106.57,-40.21 213.08,-80.36 312.67,-116.52 187.29,-37.92 368.4,-78.81 555.52,-117.23 55.95,-7.19 110.8,-16.86 164.11,-32.42 10.76,-2.04 21.38,-4.16 32.17,-6.17 9.77,-1.62 13.05,-5.01 11.78,-8.36 18.28,-6.7 36.38,-14.01 54.23,-22.61 56.65,-31.93 169.72,-16.02 254.45,-31.93 35.71,-15.13 74.51,-28.47 114.16,-41.45 -22.47,-2.82 -45.01,-6.6 -67.52,-9.91 94.83,-9.95 189.06,-20.57 281.66,-32.88 26.25,-3.5 40.15,-11.01 35.88,-19.27 9.73,1.98 22.65,2.54 34.15,0.46 61.63,-13.9 130.74,-22.4 203.55,-29.88 15.87,-2.89 24.52,-7.72 17.11,-11.96 -7.55,-5.32 -25.51,-7.44 -39.72,-5.18 -74.48,8.04 -147.36,17.71 -214.14,31.11 -7.16,1.56 -11.92,4.13 -13.16,6.81 -13.12,-4.51 -32.98,-6.7 -53.48,-5.64 190.22,-32.07 394.76,-71.76 379.8,-105.77 0,-6.52 -101.92,2.26 -252.09,15.24 -192.94,8.86 -380.05,23.99 -565.12,41.39 -78.63,3.91 -156.07,6.59 -228.6,7.26 -19.97,-11.32 -26.1,-30.51 -23.56,-53.27 479.84,-16.47 957.58,-37.78 1431,-65.68 32.35,-0.25 58.46,-8.54 57.68,-18.21 -0.67,-9.7 -28.18,-17.57 -60.39,-17.32 -375.5,-14.22 -753.22,-27.44 -1131.71,-38.31 26.45,-4.45 52.81,-8.82 79.37,-13.09 26.32,-1.55 52.64,-3.39 78.95,-4.9 243.38,-1.34 486.73,-4.17 730.96,-9.46 17.07,0.18 33.3,-0.63 48.93,-1.94 67.73,-5.57 118.6,-23.81 122.55,-46.6 1.45,-27.27 -66.28,-49.35 -154.09,-51.43 14.22,-1.66 28.29,-3.43 42.58,-4.91 14.36,-1.23 24.59,-6.59 20.71,-10.97 -5.65,-4.83 -23.96,-7.94 -37.89,-6.74 -51.4,6.28 -101.78,12.99 -152.36,19.62 -135.68,-3.04 -271.4,-4.62 -407.15,-5.58 11.72,-13.4 25.93,-28.82 42.69,-46.18 162.31,-5.43 324.94,-10.01 488.1,-12.8 -10.3,3.35 -11.5,9.17 1.2,12.84 10.83,3.07 32.39,3 42.9,-0.35 12.14,-3.81 10.06,-9.74 -0.99,-12.91l-1.13 -0.25c273.72,-4.27 548.36,-4.83 823.74,-0.95 16.09,0.38 29.88,-3.95 29.56,-9.32 -0.31,-5.39 -15.06,-9.63 -32.95,-9.45 -446.15,-6.18 -890.51,-0.67 -1331.56,13.9l8.61 -8.61c34.72,0.18 69.32,0.49 104.04,0.67 37.57,0.32 69,-8.54 69.85,-20.95 1.12,-11.36 -29.95,-20.25 -69.43,-21.07 -63.89,-0.77 -127.78,-1.02 -191.66,-1.69 52.63,-14.46 87.1,-34.96 90.62,-58 3.53,-22.15 -22.89,-42.4 -67.34,-58.03 281.83,-20.95 561.06,-44.31 833.58,-75.32 15.98,-1.72 24.52,-6.59 18.84,-11.46 -5.68,-4.8 -22.16,-7.41 -37.96,-5.65 -396.31,13.27 -787.54,33.13 -1179.9,48.65 -309.67,-27.23 -612.71,-56.69 -947.49,-67.31 -364,-10.93 -711.45,2.23 -1054.46,21.52l0 877.36z"/>
  <path class="fil2" d="M10448.04 4619.39c122.09,-19.51 245.14,-38 369.25,-54.4 95.74,-19.76 190.85,-40.78 285.86,-63.86 453.74,-85.44 983.86,-56.65 1471.26,-95.1 14.39,-46.96 16.08,-94.8 -1.49,-144.29 -529.3,-52.04 -1058.51,33.48 -1587.5,6.84 -4.09,1.77 -8.32,3.21 -12.41,5.12 -226.28,95.74 -593.69,63.92 -876.34,143.69 -282.64,95.74 -565.36,127.63 -847.83,207.53 408.41,0 796.68,-34.39 1199.2,-5.53z"/>
  <path class="fil2" d="M10007.52 5472.05l15.81 11.01c-38.6,5.5 -69.04,45.08 -15.81,-11.01zm-84.1 239.15c20.5,-21.52 -37.68,-51.86 18.31,-74.19 85.87,19.26 73.06,51.05 124.6,97.37l47.31 -59.1c7.65,83.93 95.81,70.31 190.75,63.15 -110.71,-42.86 -226.28,-88.86 -351.86,-111.65 162.87,-82.9 314.99,49.67 481.5,35.7 82.73,-59.73 -79.51,-35.07 -88.12,-71.69 0.67,-3.31 1.48,-5.6 2.19,-8.43 16.54,-64.56 46.1,-14.5 75.14,0 8.08,4.03 16.05,4.87 23.74,0 6.31,-4.05 12.42,-11.67 18.1,-25.75 10.83,-84.45 -173.85,-90.91 -246.77,-141.82 -63.47,11.93 -62.48,38.17 -81.85,85.91 -16.05,-47.03 -80.54,-61.28 -96.69,-108.41 -109.36,54.71 -175.69,-20.96 -268.89,-8.58l-0.95 0.15c-19.23,2.68 -39.51,8.78 -61.67,20.91 -5.78,-9.17 -7.65,-15.73 -7.19,-20.67l-9.42 0.18 7.51 10.44c-32.7,22.12 -74.86,29.6 -118.64,28.36 86.11,36.87 157.13,109.26 222.04,159.28 22.44,17.25 44.27,32.11 65.65,41.45 2.15,3.67 3.46,8.15 2.65,14.86 -48.51,57.46 -126.33,-32.71 -165.42,-56.31 -10.55,-6.38 -18.13,-7.55 -21.7,0 -1.69,3.6 -2.78,8.65 -2.39,16.94 68.29,80.29 218.44,54.57 242.07,111.9z"/>
  <path class="fil2" d="M10728.35 5580.81l3.64 -15.1c-3,5.15 -3.92,10.16 -3.64,15.1z"/>
  <path class="fil2" d="M10662.21 4640.87l-169.76 0c-27.02,0 -53.83,-0.32 -81.17,-0.81 -37.82,6.38 -75.99,12.63 -114.3,18.8 -140.9,22.72 -285.72,44.38 -437.45,65.87 116.07,-23.18 234.18,-44.95 353.24,-65.87 38.98,-6.88 77.72,-14 116.98,-20.6 -319.86,-9.14 -654.3,-35.91 -967.88,18.56l-8.15 2.04c-165.35,45.33 -381.92,62.09 -573.97,107.18 -4.16,5.82 -8.08,11.95 -11.61,18.52 -14.85,-1.56 -29.56,-2.58 -44.3,-3.39 -25.05,10.72 -51.83,25.86 -68.51,35.31 -34.82,5.93 -69.75,12.21 -104.64,18.45l0 108.31c471.21,-100.58 985.8,-132.37 1517.9,-137.62 287.51,-56.31 584.27,-106.54 886.57,-146.76 4.86,-0.67 9.66,-1.41 14.53,-2.04 -3.39,0.7 -6.84,1.34 -10.23,2.04 -277.04,56.83 -561.87,102.17 -871.4,146.62 315.49,-2.83 636.87,3.21 958.57,9.24 361.39,-38.63 707.11,-30.48 1073.96,-58.1 84.88,-15.91 169.62,-15.91 226.27,-47.84 16.27,-16.65 32.39,-33.27 48.37,-49.92 23.42,-24.38 46.35,-48.79 67.63,-73.34 -111.83,5.01 -226.91,22.19 -325.41,40.32 12.85,-5.85 11.36,-19.05 11.51,-28.22 -154.03,3.28 -264.38,31.29 -424.01,31.29 226.27,-85.2 502.67,-85.2 779.25,-94.72 14.33,-19.23 27.24,-38.52 38.46,-58 -573.69,-24.66 -1158.63,14.11 -1725.37,88.8 -102.66,21.16 -206.87,40.39 -312.35,58.77 52.07,4.73 104.42,10.05 157.27,17.11z"/>
  <path class="fil2" d="M10504.94 4623.76c-19.05,-1.52 -38.1,-3 -56.9,-4.37 -39.62,6.35 -79.13,12.27 -118.29,18.87 27.41,0.78 54.43,1.38 81.53,1.8 31.57,-5.26 62.62,-10.76 93.66,-16.3z"/>
  <path class="fil2" d="M9371.32 5042.08c-261.33,33.94 -522.6,69.92 -783.69,113.6 -12.42,2.71 -24.59,5.25 -36.94,7.9l0 31.68c243.07,-11.82 484.93,-27.13 726.37,-43.57 501.76,-65.01 1003.8,-121.57 1505.59,-205.67 57.01,-8.61 113.59,-15.66 169.82,-21.55 -835.34,-16.09 -1668.07,-31.79 -2401.78,109.11l0 56.55c274.89,-12.24 548.04,-29.56 820.63,-48.05z"/>
  <path class="fil2" d="M8577.86 688.95l106.36 1.9 -133.53 -27.34 0 4.2 27.17 21.24z"/>
  <path class="fil2" d="M10477.85 751.71c-4.41,10.97 -8.72,21.87 -3.95,29.24 -46.92,-27.09 -109.4,-25.72 -169.51,-21.2 54.25,21.03 107.42,40.85 160.02,56.87 27.76,-2.72 55.35,-5.75 83,-8.68 -17.53,-27.31 -38.48,-49.32 -69.56,-56.23z"/>
  <path class="fil2" d="M10728.35 602.13l3.64 -15.06c-3,5.11 -3.92,10.16 -3.64,15.06z"/>
  <path class="fil2" d="M9460.37 422.6c37.43,11.99 79.44,20.67 120.15,21.8 -37.18,-15.91 -77.08,-25.33 -120.61,-23.03l0.46 1.23z"/>
  <path class="fil2" d="M10527.62 603.68c46.04,-46.57 -17.11,-84.35 -78.67,-72.78 54.69,3.74 83.97,41.67 75.32,72.78l-1.06 4.45 4.41 -4.45z"/>
  <path class="fil2" d="M9769.93 405.17l0.95 -0.14c0.78,-2.64 -67.49,-24.55 -69.81,0.39l61.56 -1.31c4.16,0.92 6.2,1.13 7.3,1.06z"/>
  <path class="fil2" d="M8550.69 1186.61c214.46,4.98 422.67,5.26 593.59,-28.82 -3.39,-0.88 -6.85,-1.84 -10.38,-2.68 -89.78,0.17 -181.04,-1.27 -273.05,-3.14 -100.47,12.59 -204.71,21.13 -310.16,27.13l0 7.51z"/>
  <path class="fil2" d="M9387.16 472.62l-47.2 -74.57 -124.25 108.23c94.65,-72 203.52,72.21 222.18,-64.24l48.05 48.26 -25.57 -67.7c-29.07,-9.31 -55.18,-20.46 -75.68,-31.54 34.58,25.44 50.38,64.91 2.47,81.56z"/>
  <path class="fil2" d="M10080.73 1652.81c-18.81,-3.43 -37.61,-6.85 -56.2,-10.09 -40.01,2.33 -79.91,4.27 -119.56,6.91 27.17,3.53 54.01,6.81 80.93,9.99 31.96,-2.09 63.39,-4.41 94.83,-6.81z"/>
  <path class="fil2" d="M8941.43 5411.3l-0.57 -2.08c-24.51,-2.01 -46.21,-6.46 -69.07,-9.88 11.22,11.33 30.06,17.75 69.64,11.96z"/>
  <path class="fil2" d="M11347.27 3754.59c-12.38,3.91 -11.93,9.24 0.92,12.91 10.97,3.17 30.62,3.6 42.86,-0.25 10.37,-3.35 9.98,-9.77 -0.99,-12.91 -12.77,-3.7 -32.42,-3.03 -42.79,0.25z"/>
  <path class="fil2" d="M12753.62 4747.3c9.56,-0.17 18.59,-0.67 28.11,-0.67 -25.33,-14.36 -27.9,-9.2 -28.11,0.67z"/>
  <path class="fil2" d="M10731.6 929.86l0.39 -0.11 -10.06 -8.99c3.28,3.91 6.35,5.92 9.67,9.1z"/>
  <path class="fil2" d="M12365.42 4935.19c98.5,-18.13 213.57,-35.31 325.3,-40.36 14.53,-16.96 28.61,-34.11 41.38,-51.29 -276.51,9.53 -553.09,9.53 -779.43,94.72 160.09,0 270.16,-28.01 424.25,-31.33 0.07,-9.8 2.61,-14.99 28.15,-0.59 -9.88,0 -18.91,0.45 -28.15,0.59 -0.35,9.14 1.27,22.44 -11.5,28.26z"/>
  <path class="fil2" d="M8550.69 3470.04c109.86,-10.38 219.82,-20.71 329.57,-31.75 1099.01,-17.33 2154.41,-92.19 3225.87,-156.11 82.97,-3.03 143.01,-26.03 133.03,-50.94 -9.7,-25.05 -86.36,-43.14 -169.09,-40.11 -622.3,0.14 -1195.91,43.53 -1825.59,86.54 -108.69,7.37 -214.1,14.28 -317.99,20.81 280.99,-54.86 544.41,-118.15 830.69,-171.45 13.93,-2.36 15.27,-8.26 7.86,-12.49 -11.11,-4.27 -30.62,-4.69 -43.14,-1.9 -624.03,63.81 -1252.5,120.22 -1908.11,147.39 -87.77,-1.73 -175.47,-3.67 -263.1,-5.54l0 215.55z"/>
  <path class="fil2" d="M11791.1 2529c-12.35,3.92 -11.89,9.28 0.95,12.91 10.97,3.21 30.62,3.6 42.83,-0.24 10.37,-3.32 9.98,-9.78 -0.99,-12.88 -12.77,-3.74 -32.39,-3.07 -42.79,0.21z"/>
  <path class="fil2" d="M8766.77 5329.17l-38.14 78.25c63.79,-16.65 105.17,-13.83 143.16,-8.08 -25.12,-25.43 -11.57,-75.74 -105.02,-70.17z"/>
  <path class="fil2" d="M9384.69 391.06c-6.95,-5.11 -14.39,-9.88 -22.54,-13.54 6.32,4.4 14.08,8.96 22.54,13.54z"/>
  <path class="fil2" d="M9226.37 5359.8l-70.24 3.03c40.71,8.71 60.71,5.68 70.24,-3.03z"/>
  <path class="fil2" d="M9326.77 5355.49l-26.21 -68.97c-110.63,-29.59 -45.79,47.28 -74.19,73.28l100.4 -4.31z"/>
  <path class="fil2" d="M11329.49 1018.87c-10.66,-14.68 -36.62,-20.04 -69.11,-21.91 6.03,23.21 24.27,40.18 69.11,21.91z"/>
  <path class="fil2" d="M8910.81 1955.1c-120.02,3.42 -240.03,7.38 -360.12,12.21l0 78.49c85.16,3.14 170.25,6.1 255.34,8.89 81.28,-2.29 162.56,-4.34 243.84,-6.35 138.12,2.79 276.19,6 414.31,8.29 17.46,0.32 32.13,-3.42 32.98,-8.68 0.88,-4.48 -12.66,-9.13 -28.82,-9.06 -7.73,-0.14 -15.42,-0.36 -23.11,-0.5 292.7,-7.83 585.65,-17.81 879.41,-37.04 57.6,-2.86 114.61,-4.2 171.13,-4.41 -663.72,-79.97 -1325.71,-159.35 -1945.08,-154.02l0 99.13c120.16,4.73 240.21,9.1 360.12,13.05z"/>
  <path class="fil2" d="M9460.37 5401.28c37.43,12 79.44,20.68 120.15,21.8 -37.18,-15.91 -77.08,-25.33 -120.61,-23.03l0.46 1.23z"/>
  <path class="fil2" d="M8550.69 3146.33c23.53,-2.9 47.27,-5.51 70.77,-8.4 61.77,-1.94 118.6,-8.25 167.53,-17.71 239.26,13.02 479.32,22.4 719.88,34.4l59.59 5.11c78.98,3.74 155.08,-6.98 192.97,-27.69 12.24,-6.1 19.5,-12.7 23.14,-19.33 547.83,-36.69 1104.12,-64.07 1621.33,-132.86 26.25,-3.49 40.15,-10.97 35.91,-19.26 9.7,1.97 22.62,2.54 34.12,0.46 61.63,-13.87 130.74,-22.4 203.55,-29.88 15.87,-2.86 24.55,-7.73 17.14,-11.96 -7.55,-5.33 -25.54,-7.41 -39.75,-5.15 -74.48,8.01 -147.36,17.67 -214.14,31.08 -7.13,1.59 -11.89,4.13 -13.16,6.84 -14.89,-5.15 -38.42,-7.51 -61.74,-5.25 -534.56,23.24 -1052.01,75.14 -1591.66,86.5 263.95,-31.68 534.04,-53.63 818.06,-77.61 342.79,-28.58 658.18,-69.54 1003.79,-85.91 17.99,-0.07 30.02,-5.01 28.08,-9.87 -2.29,-4.84 -17.04,-9.11 -34.78,-7.84 -708.06,24.66 -1328.6,144.15 -2059.94,144.22 -28.79,-0.07 -57.54,-0.56 -85.9,-1.27 225.56,-41.7 447.04,-84.28 667.84,-126.26 672.75,-17.64 1342.57,-44.2 2004.2,-83.22 32.35,-0.21 58.46,-8.5 57.68,-18.17 -0.67,-9.73 -28.18,-17.6 -60.39,-17.35 -375.46,-14.22 -753.22,-27.45 -1131.68,-38.28 26.46,-4.48 52.78,-8.86 79.38,-13.12 26.31,-1.52 52.63,-3.36 78.95,-4.91 243.34,-1.34 486.69,-4.13 730.92,-9.45 17.11,0.21 33.34,-0.64 48.96,-1.91 67.74,-5.57 118.61,-23.84 122.52,-46.6 1.45,-27.27 -66.25,-49.35 -154.09,-51.47 14.22,-1.62 28.29,-3.42 42.58,-4.9 14.36,-1.2 24.62,-6.6 20.71,-10.94 -5.61,-4.83 -23.92,-7.97 -37.89,-6.77 -51.36,6.31 -101.78,13.02 -152.37,19.61 -463.69,-10.26 -928.08,-7.02 -1392.44,-1.66 499.71,-32.13 1006.12,-54.22 1516.09,-62.9 -10.3,3.36 -11.5,9.18 1.2,12.84 10.87,3.07 32.42,3.04 42.94,-0.35 12.1,-3.81 10.05,-9.7 -0.99,-12.87l-1.13 -0.25c273.72,-4.31 548.36,-4.87 823.7,-0.99 16.09,0.42 29.92,-3.95 29.56,-9.28 -0.31,-5.43 -15.06,-9.63 -32.91,-9.49 -912.21,-12.63 -1817.02,22.93 -2700.9,87.1 -48.16,0.53 -96.42,1.24 -144.89,1.7l-0.07 -0.43c-15.2,-21.02 -47.17,-39.65 -90.52,-54.82 312.91,-9.17 624.13,-19.96 936.45,-32.59 260.17,1.76 520.31,3.63 781.01,5.01 37.57,0.31 68.97,-8.51 69.85,-20.96 1.09,-11.32 -29.99,-20.25 -69.46,-21.06 -63.89,-0.78 -127.78,-1.02 -191.63,-1.66 52.63,-14.5 87.07,-34.99 90.59,-58 3.57,-22.19 -22.89,-42.4 -67.34,-58.03 281.87,-20.99 561.06,-44.31 833.58,-75.32 16.01,-1.76 24.55,-6.59 18.84,-11.46 -5.68,-4.8 -22.12,-7.41 -37.93,-5.65 -396.34,13.23 -787.57,33.1 -1179.9,48.62 -309.7,-27.24 -612.7,-56.69 -947.52,-67.31 -487.58,-14.64 -945.48,13.93 -1402.76,42.58 -31.92,-1.41 -63.67,-2.4 -95.53,-3.67l0 876.02z"/>
  <path class="fil2" d="M9384.69 5369.74c-6.95,-5.11 -14.39,-9.87 -22.54,-13.54 6.32,4.37 14.08,8.96 22.54,13.54z"/>
  <path class="fil2" d="M10235.49 1685.62l-168.88 -17.04c-26.91,-2.72 -53.55,-5.75 -80.71,-8.96 -38.24,2.54 -76.84,4.9 -115.61,7.19 -142.45,8.47 -288.71,15.49 -441.85,21.59 117.79,-11.39 237.52,-21.16 358.07,-30.05 39.47,-2.9 78.7,-6.11 118.46,-8.72 -317.32,-41.24 -647.38,-101.49 -964.85,-78.81l-8.29 1.24c-112.6,18.98 -246.38,23.28 -381.14,31.39l0 141.22c347.24,-8.54 708.94,11.64 1077.63,45.23 291.71,-27.13 592.03,-47.31 896.8,-56.94 4.9,-0.18 9.77,-0.43 14.67,-0.6 -3.45,0.35 -6.91,0.67 -10.37,1.02 -281.34,28.72 -569.31,45.23 -881.73,58.35 314.18,28.86 633.34,67.13 952.82,105.48 363.43,-2.15 706.58,40.71 1074.35,50.1 86.04,-7.34 170.35,1.2 229.94,-24.88 17.85,-14.92 35.56,-29.84 53.13,-44.8 25.75,-21.91 51.04,-43.88 74.64,-66.18 -111.76,-6.24 -227.96,-0.7 -327.8,7.44 13.37,-4.55 13.23,-17.81 14.29,-26.91 -153.56,-12.24 -266.17,4.55 -425.03,-11.5 233.68,-62.02 508.71,-34.26 784.83,-15.95 16.19,-17.67 30.97,-35.59 44.1,-53.8 -568.29,-82.19 -1154.19,-102.37 -1725.58,-85.02 -104.25,10.73 -209.83,19.37 -316.65,27.1 51.36,9.91 102.9,20.49 154.76,32.81z"/>
  <path class="fil2" d="M9387.16 5451.27l-47.2 -74.54 -124.25 108.23c94.65,-72 203.52,72.22 222.18,-64.24l48.05 48.26 -25.57 -67.7c-29.07,-9.31 -55.18,-20.46 -75.68,-31.54 34.58,25.44 50.38,64.88 2.47,81.53z"/>
  <path class="fil2" d="M9941.73 658.36c22.9,5.12 38.49,11.22 50.45,18.17 -25.01,0.56 -49.74,1.2 -74.61,1.83 2.08,-7.05 8.67,-13.86 24.16,-20zm65.79 -164.99l15.81 11c-38.6,5.51 -69.04,45.09 -15.81,-11zm-441.07 381.81c-167.4,6.77 -336.24,12.24 -505.75,16.9 46.04,-8.82 92.36,-18.52 138.54,-29.11 22.08,-6.98 45.08,-12.59 68.12,-17.46 184.93,-39.19 393.7,-17.07 609.92,15.2 117.3,-6.42 233.89,-14.07 349.6,-23.07 3.18,-0.7 5.96,-1.62 9.03,-2.43 -144.81,-15.28 -291.46,-41.1 -435.04,-62.44 -268.68,14.67 -541.62,23.74 -816.51,31.39 46.18,-8.78 92.18,-18.55 138.57,-29.17 86.75,-26.81 179.92,-37.04 277.11,-37.78 12.21,8.04 23.57,18.13 33.8,30.87 -3.39,-10.31 -4.06,-20.75 -3.5,-31.01 118.78,1.55 243.31,16.65 370.53,35.7 114.79,-6.32 228.74,-13.8 341.87,-22.51 35,22.26 96.74,14.39 161.65,9.49 -16.16,-6.24 -32.46,-12.52 -48.86,-18.84 100.71,-8.71 200.83,-18.31 299.68,-29.84 -154.55,-15.53 -328.93,-32.18 -485.35,-34.96 -38.17,-11.22 -77.26,-20.75 -117.33,-28.01 162.87,-82.91 314.99,49.67 481.5,35.7 82.73,-59.73 -79.51,-35.07 -88.12,-71.69 0.67,-3.31 1.48,-5.57 2.19,-8.43 16.54,-64.56 46.1,-14.5 75.14,0 8.08,4.02 16.05,4.87 23.74,0 6.31,-4.02 12.42,-11.68 18.1,-25.75 10.83,-84.42 -173.85,-90.88 -246.77,-141.82 -63.47,11.96 -62.48,38.17 -81.85,85.9 -16.05,-47.02 -80.54,-61.27 -96.69,-108.37 -109.36,54.68 -175.69,-20.99 -268.89,-8.61l-0.95 0.14c-19.23,2.68 -39.51,8.82 -61.67,20.92 -5.78,-9.13 -7.65,-15.73 -7.19,-20.67l-9.42 0.21 7.51 10.44c-32.7,22.12 -74.86,29.57 -118.64,28.33 86.11,36.87 157.13,109.26 222.04,159.28 22.44,17.29 44.27,32.1 65.65,41.49 2.15,3.63 3.46,8.11 2.65,14.81 -48.51,57.47 -126.33,-32.7 -165.42,-56.3 -10.55,-6.35 -18.13,-7.55 -21.7,0 -1.69,3.6 -2.78,8.64 -2.39,16.93 30.16,35.46 76.27,50.24 120.4,60.61 -123.33,3.32 -244.58,7.02 -364.99,10.9 3.85,-28.68 -0.35,-52 -54.92,-61.7 -14.93,30.38 -48.51,30.83 -44.98,64.91l-5.75 0.21c-35.03,-13.68 -29.21,-51.78 -55.81,-67.27 -72.5,51.22 -184.82,12.38 -243.03,58.6 28.54,-10.02 35.38,0.63 56.37,6.24 12.77,4.41 26.07,7.37 39.73,9.49 -15,0.53 -30.17,1.06 -45.12,1.59l5.39 -11.08c-7.4,4.87 -14.35,8.64 -21.06,11.68 -21.98,0.81 -43.81,1.62 -65.76,2.43 -52.24,-22.08 -74.33,-91.83 -112.28,3.35 17.49,-16.51 40.07,-11.78 64.45,-1.55 -135.08,5.05 -269.42,10.23 -403.3,15.52l0 422.1c103.54,0.88 207.29,3.18 310.16,5.33 31.68,-3.95 63.26,-8.26 94.27,-12.88 67.31,-5.71 124.39,2.29 178.78,16.02 8.51,0.03 16.87,0.07 25.26,0 -4.86,1.02 -10.05,1.69 -14.88,2.68 81.42,21.66 158.36,55.14 256.18,74.47l29.64 -13.12c-1.63,15.94 -3.21,31.85 -4.84,47.69 -264.26,85.69 -565.53,-24.94 -851.67,-5.71 -7.59,0.53 -15.31,0.77 -22.9,1.27l0 294.07c69.99,-1.65 147.01,6.04 219.01,13.3 -4.94,-6.81 -5.58,-11.29 -3.57,-14.43 8.22,-12.77 62.16,-2.08 64.74,-27.58 175.08,-46.6 350.02,-93.07 495.69,-126.58 231.28,-40.67 453.14,13.83 659.51,-61.63 59.59,-26.07 170.5,1.13 256.4,-6.21 37.05,-11.46 76.98,-20.81 117.76,-29.74 -40.96,-9.38 -81.98,-19.58 -122.84,-30.9 -26.38,-18.8 723.94,-27.24 702.42,-93.63 1.59,-15.87 -613.62,-1.76 -1046.94,-41.52 -79.48,-56.2 96.8,-226.91 154.91,-237 6.63,-3.74 14.25,-6.95 21.44,-10.16 -64.17,-9.87 -128.44,-20.18 -191.94,-29.67 -103.15,5.65 -206.94,10.24 -310.83,14.47z"/>
  <path class="fil2" d="M10397.38 1625.71c97.26,-10.05 193.99,-21.41 290.86,-34.82 460.03,-39.44 984.57,42.48 1473.34,53.2 19.05,-45.26 25.55,-92.71 13.02,-143.72 -521.37,-104.95 -1056.5,-73.02 -1580.16,-152.68 -4.23,1.34 -8.57,2.33 -12.84,3.84 -234.77,72.54 -597.11,3.96 -886.36,54.93 -290.83,66.85 -575.31,70.17 -864.37,121.29 406.36,41.03 796.08,45.82 1193.66,114.97 123.47,-7.16 247.75,-13.16 372.85,-17.01z"/>
  <path class="fil2" d="M10949.33 902.2c4.56,-11.5 12.85,-24.09 20.11,-36.58 -0.46,10.76 -5.82,22.79 -20.11,36.58zm1482.76 295.38c301.84,-143.86 383.76,-337.75 349.64,-555.69 -14.43,6.1 -28.71,12.06 -42.79,17.81 1.41,-11.32 -0.46,-41.84 -16.4,-56.02 -7.45,-6.6 -17.64,-9.98 -32.49,-5.68 -6.14,1.8 -11.26,3.71 -15.67,5.68 -62.93,28.05 37.08,73.1 -8.43,101.35 -101.95,-181.5 -316.97,119.24 -425.98,-101.35l-0.95 -1.8c-8.75,0.6 -17.75,1.2 -26.53,1.8 -437.34,29.46 -958.07,67.31 -1350.33,25.33l20.15 17.96c-42.9,26.74 -149.19,-2.75 -153.99,-43.29l0.03 -1.55 -0.38 1.55 -17.89 73.8c-60.57,12.84 -60.15,-25.08 -49.35,-73.8 16.01,-72.32 55.1,-168.66 -46.29,-160.12 87,45.33 13.94,168.02 -50.55,153.63l3.1 6.49c11.93,32.56 13.66,139.91 45.83,134.34l91.55 81.07c3.52,-124.96 154.16,-65.09 206.97,-36.59 -1.59,3.5 -3.32,6.95 -5.04,10.41 -19.44,1.13 -16.97,4.2 -5.37,9.98 -29.49,52.92 -74.82,93.07 -131.97,37.15 -56.94,13.02 -113.07,13.8 -169.12,6.85 15.59,-13.59 33.44,-28.58 54.54,-45.55 -7.38,-0.74 -15.24,-1.51 -22.55,-2.26 -27.97,3.25 -56.3,5.86 -84.42,8.86 6.85,10.62 13.2,21.98 19.37,33.72 -34.01,-6.03 -68.12,-14.6 -102.37,-25.04 -78.74,7.69 -157.84,14.81 -237.53,21.02 -56.8,14.54 -111.19,30.91 -157.66,52.74 81,12.42 162.42,24.2 243.24,32.81 131.13,-33.12 209.91,-45.54 254,-46.32 3.89,-3.63 8.26,-7.58 12.56,-11.53 2.12,4.12 4.27,8.15 6.42,12.2 -5.5,-0.49 -11.6,-0.81 -18.98,-0.67 -125.65,118.39 0.82,73.66 38.6,34.36 23.35,35.14 53.37,61.32 103.96,58.42 -75.32,-30.05 50.41,-46.74 -12.59,-84.38 73.06,-45.23 167.18,111.16 296.86,61.13 -46.46,13.66 -28.64,-43.53 -4.37,-58.7 85.23,35.6 223.3,14.36 308.71,19.33 -3.63,-13.47 -3.46,-28.92 -2.04,-40.95 75.35,29.91 97.61,31.29 181.15,86.92 313.44,112.15 743.34,-1.66 1007.99,140.9 83.22,73.56 -87,69.46 -52.64,103.68z"/>
 </g>
</svg>
